<?xml version="1.0" encoding="utf-8" standalone="no"?>
<!DOCTYPE svg PUBLIC "-//W3C//DTD SVG 1.1//EN"
  "http://www.w3.org/Graphics/SVG/1.1/DTD/svg11.dtd">
<svg height="345.6pt" version="1.1" viewBox="0 0 460.8 345.6" width="460.8pt" xmlns="http://www.w3.org/2000/svg" xmlns:xlink="http://www.w3.org/1999/xlink">
 <metadata>
  <rdf:RDF xmlns:cc="http://creativecommons.org/ns#" xmlns:dc="http://purl.org/dc/elements/1.1/" xmlns:rdf="http://www.w3.org/1999/02/22-rdf-syntax-ns#">
   <cc:Work>
    <dc:type rdf:resource="http://purl.org/dc/dcmitype/StillImage"/>
    <dc:date>2021-09-26T21:59:00.790129</dc:date>
    <dc:format>image/svg+xml</dc:format>
    <dc:creator>
     <cc:Agent>
      <dc:title>Matplotlib v3.4.3, https://matplotlib.org/</dc:title>
     </cc:Agent>
    </dc:creator>
   </cc:Work>
  </rdf:RDF>
 </metadata>
 <defs>
  <style type="text/css">*{stroke-linecap:butt;stroke-linejoin:round;}</style>
 </defs>
 <g id="figure_1">
  <g id="patch_1">
   <path d="M 0 345.6 
L 460.8 345.6 
L 460.8 0 
L 0 0 
z
" style="fill:#ffffff;"/>
  </g>
  <g id="axes_1">
   <g id="patch_2">
    <path d="M 57.6 307.584 
L 414.72 307.584 
L 414.72 41.472 
L 57.6 41.472 
z
" style="fill:#ffffff;"/>
   </g>
   <g id="patch_3">
    <path clip-path="url(#p16e5a1d751)" d="M 73.832727 307.584 
L 75.100909 307.584 
L 75.100909 307.43453 
L 73.832727 307.43453 
z
" style="fill:#1f77b4;"/>
   </g>
   <g id="patch_4">
    <path clip-path="url(#p16e5a1d751)" d="M 75.100909 307.584 
L 76.369091 307.584 
L 76.369091 306.807177 
L 75.100909 306.807177 
z
" style="fill:#1f77b4;"/>
   </g>
   <g id="patch_5">
    <path clip-path="url(#p16e5a1d751)" d="M 76.369091 307.584 
L 77.637273 307.584 
L 77.637273 306.887175 
L 76.369091 306.887175 
z
" style="fill:#1f77b4;"/>
   </g>
   <g id="patch_6">
    <path clip-path="url(#p16e5a1d751)" d="M 77.637273 307.584 
L 78.905455 307.584 
L 78.905455 306.464028 
L 77.637273 306.464028 
z
" style="fill:#1f77b4;"/>
   </g>
   <g id="patch_7">
    <path clip-path="url(#p16e5a1d751)" d="M 78.905455 307.584 
L 80.173636 307.584 
L 80.173636 305.704047 
L 78.905455 305.704047 
z
" style="fill:#1f77b4;"/>
   </g>
   <g id="patch_8">
    <path clip-path="url(#p16e5a1d751)" d="M 80.173636 307.584 
L 81.441818 307.584 
L 81.441818 303.832515 
L 80.173636 303.832515 
z
" style="fill:#1f77b4;"/>
   </g>
   <g id="patch_9">
    <path clip-path="url(#p16e5a1d751)" d="M 81.441818 307.584 
L 82.71 307.584 
L 82.71 301.352576 
L 81.441818 301.352576 
z
" style="fill:#1f77b4;"/>
   </g>
   <g id="patch_10">
    <path clip-path="url(#p16e5a1d751)" d="M 82.71 307.584 
L 83.978182 307.584 
L 83.978182 292.224383 
L 82.71 292.224383 
z
" style="fill:#1f77b4;"/>
   </g>
   <g id="patch_11">
    <path clip-path="url(#p16e5a1d751)" d="M 83.978182 307.584 
L 85.246364 307.584 
L 85.246364 270.854389 
L 83.978182 270.854389 
z
" style="fill:#1f77b4;"/>
   </g>
   <g id="patch_12">
    <path clip-path="url(#p16e5a1d751)" d="M 85.246364 307.584 
L 86.514545 307.584 
L 86.514545 233.373218 
L 85.246364 233.373218 
z
" style="fill:#1f77b4;"/>
   </g>
   <g id="patch_13">
    <path clip-path="url(#p16e5a1d751)" d="M 86.514545 307.584 
L 87.782727 307.584 
L 87.782727 187.690146 
L 86.514545 187.690146 
z
" style="fill:#1f77b4;"/>
   </g>
   <g id="patch_14">
    <path clip-path="url(#p16e5a1d751)" d="M 87.782727 307.584 
L 89.050909 307.584 
L 89.050909 118.502396 
L 87.782727 118.502396 
z
" style="fill:#1f77b4;"/>
   </g>
   <g id="patch_15">
    <path clip-path="url(#p16e5a1d751)" d="M 89.050909 307.584 
L 90.319091 307.584 
L 90.319091 140.531321 
L 89.050909 140.531321 
z
" style="fill:#1f77b4;"/>
   </g>
   <g id="patch_16">
    <path clip-path="url(#p16e5a1d751)" d="M 90.319091 307.584 
L 91.587273 307.584 
L 91.587273 137.179825 
L 90.319091 137.179825 
z
" style="fill:#1f77b4;"/>
   </g>
   <g id="patch_17">
    <path clip-path="url(#p16e5a1d751)" d="M 91.587273 307.584 
L 92.855455 307.584 
L 92.855455 174.010487 
L 91.587273 174.010487 
z
" style="fill:#1f77b4;"/>
   </g>
   <g id="patch_18">
    <path clip-path="url(#p16e5a1d751)" d="M 92.855455 307.584 
L 94.123636 307.584 
L 94.123636 176.284114 
L 92.855455 176.284114 
z
" style="fill:#1f77b4;"/>
   </g>
   <g id="patch_19">
    <path clip-path="url(#p16e5a1d751)" d="M 94.123636 307.584 
L 95.391818 307.584 
L 95.391818 180.660847 
L 94.123636 180.660847 
z
" style="fill:#1f77b4;"/>
   </g>
   <g id="patch_20">
    <path clip-path="url(#p16e5a1d751)" d="M 95.391818 307.584 
L 96.66 307.584 
L 96.66 190.13219 
L 95.391818 190.13219 
z
" style="fill:#1f77b4;"/>
   </g>
   <g id="patch_21">
    <path clip-path="url(#p16e5a1d751)" d="M 96.66 307.584 
L 97.928182 307.584 
L 97.928182 195.976255 
L 96.66 195.976255 
z
" style="fill:#1f77b4;"/>
   </g>
   <g id="patch_22">
    <path clip-path="url(#p16e5a1d751)" d="M 97.928182 307.584 
L 99.196364 307.584 
L 99.196364 209.203294 
L 97.928182 209.203294 
z
" style="fill:#1f77b4;"/>
   </g>
   <g id="patch_23">
    <path clip-path="url(#p16e5a1d751)" d="M 99.196364 307.584 
L 100.464545 307.584 
L 100.464545 221.882978 
L 99.196364 221.882978 
z
" style="fill:#1f77b4;"/>
   </g>
   <g id="patch_24">
    <path clip-path="url(#p16e5a1d751)" d="M 100.464545 307.584 
L 101.732727 307.584 
L 101.732727 230.600655 
L 100.464545 230.600655 
z
" style="fill:#1f77b4;"/>
   </g>
   <g id="patch_25">
    <path clip-path="url(#p16e5a1d751)" d="M 101.732727 307.584 
L 103.000909 307.584 
L 103.000909 231.356426 
L 101.732727 231.356426 
z
" style="fill:#1f77b4;"/>
   </g>
   <g id="patch_26">
    <path clip-path="url(#p16e5a1d751)" d="M 103.000909 307.584 
L 104.269091 307.584 
L 104.269091 230.512236 
L 103.000909 230.512236 
z
" style="fill:#1f77b4;"/>
   </g>
   <g id="patch_27">
    <path clip-path="url(#p16e5a1d751)" d="M 104.269091 307.584 
L 105.537273 307.584 
L 105.537273 227.373367 
L 104.269091 227.373367 
z
" style="fill:#1f77b4;"/>
   </g>
   <g id="patch_28">
    <path clip-path="url(#p16e5a1d751)" d="M 105.537273 307.584 
L 106.805455 307.584 
L 106.805455 226.207081 
L 105.537273 226.207081 
z
" style="fill:#1f77b4;"/>
   </g>
   <g id="patch_29">
    <path clip-path="url(#p16e5a1d751)" d="M 106.805455 307.584 
L 108.073636 307.584 
L 108.073636 221.668246 
L 106.805455 221.668246 
z
" style="fill:#1f77b4;"/>
   </g>
   <g id="patch_30">
    <path clip-path="url(#p16e5a1d751)" d="M 108.073636 307.584 
L 109.341818 307.584 
L 109.341818 218.299909 
L 108.073636 218.299909 
z
" style="fill:#1f77b4;"/>
   </g>
   <g id="patch_31">
    <path clip-path="url(#p16e5a1d751)" d="M 109.341818 307.584 
L 110.61 307.584 
L 110.61 216.798894 
L 109.341818 216.798894 
z
" style="fill:#1f77b4;"/>
   </g>
   <g id="patch_32">
    <path clip-path="url(#p16e5a1d751)" d="M 110.61 307.584 
L 111.878182 307.584 
L 111.878182 212.222166 
L 110.61 212.222166 
z
" style="fill:#1f77b4;"/>
   </g>
   <g id="patch_33">
    <path clip-path="url(#p16e5a1d751)" d="M 111.878182 307.584 
L 113.146364 307.584 
L 113.146364 210.506419 
L 111.878182 210.506419 
z
" style="fill:#1f77b4;"/>
   </g>
   <g id="patch_34">
    <path clip-path="url(#p16e5a1d751)" d="M 113.146364 307.584 
L 114.414545 307.584 
L 114.414545 208.005429 
L 113.146364 208.005429 
z
" style="fill:#1f77b4;"/>
   </g>
   <g id="patch_35">
    <path clip-path="url(#p16e5a1d751)" d="M 114.414545 307.584 
L 115.682727 307.584 
L 115.682727 203.432911 
L 114.414545 203.432911 
z
" style="fill:#1f77b4;"/>
   </g>
   <g id="patch_36">
    <path clip-path="url(#p16e5a1d751)" d="M 115.682727 307.584 
L 116.950909 307.584 
L 116.950909 198.07936 
L 115.682727 198.07936 
z
" style="fill:#1f77b4;"/>
   </g>
   <g id="patch_37">
    <path clip-path="url(#p16e5a1d751)" d="M 116.950909 307.584 
L 118.219091 307.584 
L 118.219091 194.919439 
L 116.950909 194.919439 
z
" style="fill:#1f77b4;"/>
   </g>
   <g id="patch_38">
    <path clip-path="url(#p16e5a1d751)" d="M 118.219091 307.584 
L 119.487273 307.584 
L 119.487273 196.793077 
L 118.219091 196.793077 
z
" style="fill:#1f77b4;"/>
   </g>
   <g id="patch_39">
    <path clip-path="url(#p16e5a1d751)" d="M 119.487273 307.584 
L 120.755455 307.584 
L 120.755455 197.885681 
L 119.487273 197.885681 
z
" style="fill:#1f77b4;"/>
   </g>
   <g id="patch_40">
    <path clip-path="url(#p16e5a1d751)" d="M 120.755455 307.584 
L 122.023636 307.584 
L 122.023636 202.759244 
L 120.755455 202.759244 
z
" style="fill:#1f77b4;"/>
   </g>
   <g id="patch_41">
    <path clip-path="url(#p16e5a1d751)" d="M 122.023636 307.584 
L 123.291818 307.584 
L 123.291818 205.340232 
L 122.023636 205.340232 
z
" style="fill:#1f77b4;"/>
   </g>
   <g id="patch_42">
    <path clip-path="url(#p16e5a1d751)" d="M 123.291818 307.584 
L 124.56 307.584 
L 124.56 207.150713 
L 123.291818 207.150713 
z
" style="fill:#1f77b4;"/>
   </g>
   <g id="patch_43">
    <path clip-path="url(#p16e5a1d751)" d="M 124.56 307.584 
L 125.828182 307.584 
L 125.828182 208.022271 
L 124.56 208.022271 
z
" style="fill:#1f77b4;"/>
   </g>
   <g id="patch_44">
    <path clip-path="url(#p16e5a1d751)" d="M 125.828182 307.584 
L 127.096364 307.584 
L 127.096364 208.390682 
L 125.828182 208.390682 
z
" style="fill:#1f77b4;"/>
   </g>
   <g id="patch_45">
    <path clip-path="url(#p16e5a1d751)" d="M 127.096364 307.584 
L 128.364545 307.584 
L 128.364545 207.597018 
L 127.096364 207.597018 
z
" style="fill:#1f77b4;"/>
   </g>
   <g id="patch_46">
    <path clip-path="url(#p16e5a1d751)" d="M 128.364545 307.584 
L 129.632727 307.584 
L 129.632727 206.786512 
L 128.364545 206.786512 
z
" style="fill:#1f77b4;"/>
   </g>
   <g id="patch_47">
    <path clip-path="url(#p16e5a1d751)" d="M 129.632727 307.584 
L 130.900909 307.584 
L 130.900909 208.089637 
L 129.632727 208.089637 
z
" style="fill:#1f77b4;"/>
   </g>
   <g id="patch_48">
    <path clip-path="url(#p16e5a1d751)" d="M 130.900909 307.584 
L 132.169091 307.584 
L 132.169091 205.929691 
L 130.900909 205.929691 
z
" style="fill:#1f77b4;"/>
   </g>
   <g id="patch_49">
    <path clip-path="url(#p16e5a1d751)" d="M 132.169091 307.584 
L 133.437273 307.584 
L 133.437273 207.034927 
L 132.169091 207.034927 
z
" style="fill:#1f77b4;"/>
   </g>
   <g id="patch_50">
    <path clip-path="url(#p16e5a1d751)" d="M 133.437273 307.584 
L 134.705455 307.584 
L 134.705455 206.138107 
L 133.437273 206.138107 
z
" style="fill:#1f77b4;"/>
   </g>
   <g id="patch_51">
    <path clip-path="url(#p16e5a1d751)" d="M 134.705455 307.584 
L 135.973636 307.584 
L 135.973636 204.719195 
L 134.705455 204.719195 
z
" style="fill:#1f77b4;"/>
   </g>
   <g id="patch_52">
    <path clip-path="url(#p16e5a1d751)" d="M 135.973636 307.584 
L 137.241818 307.584 
L 137.241818 203.148708 
L 135.973636 203.148708 
z
" style="fill:#1f77b4;"/>
   </g>
   <g id="patch_53">
    <path clip-path="url(#p16e5a1d751)" d="M 137.241818 307.584 
L 138.51 307.584 
L 138.51 202.851873 
L 137.241818 202.851873 
z
" style="fill:#1f77b4;"/>
   </g>
   <g id="patch_54">
    <path clip-path="url(#p16e5a1d751)" d="M 138.51 307.584 
L 139.778182 307.584 
L 139.778182 205.053923 
L 138.51 205.053923 
z
" style="fill:#1f77b4;"/>
   </g>
   <g id="patch_55">
    <path clip-path="url(#p16e5a1d751)" d="M 139.778182 307.584 
L 141.046364 307.584 
L 141.046364 206.546518 
L 139.778182 206.546518 
z
" style="fill:#1f77b4;"/>
   </g>
   <g id="patch_56">
    <path clip-path="url(#p16e5a1d751)" d="M 141.046364 307.584 
L 142.314545 307.584 
L 142.314545 210.436947 
L 141.046364 210.436947 
z
" style="fill:#1f77b4;"/>
   </g>
   <g id="patch_57">
    <path clip-path="url(#p16e5a1d751)" d="M 142.314545 307.584 
L 143.582727 307.584 
L 143.582727 210.279056 
L 142.314545 210.279056 
z
" style="fill:#1f77b4;"/>
   </g>
   <g id="patch_58">
    <path clip-path="url(#p16e5a1d751)" d="M 143.582727 307.584 
L 144.850909 307.584 
L 144.850909 212.434792 
L 143.582727 212.434792 
z
" style="fill:#1f77b4;"/>
   </g>
   <g id="patch_59">
    <path clip-path="url(#p16e5a1d751)" d="M 144.850909 307.584 
L 146.119091 307.584 
L 146.119091 212.152694 
L 144.850909 212.152694 
z
" style="fill:#1f77b4;"/>
   </g>
   <g id="patch_60">
    <path clip-path="url(#p16e5a1d751)" d="M 146.119091 307.584 
L 147.387273 307.584 
L 147.387273 214.571581 
L 146.119091 214.571581 
z
" style="fill:#1f77b4;"/>
   </g>
   <g id="patch_61">
    <path clip-path="url(#p16e5a1d751)" d="M 147.387273 307.584 
L 148.655455 307.584 
L 148.655455 213.504239 
L 147.387273 213.504239 
z
" style="fill:#1f77b4;"/>
   </g>
   <g id="patch_62">
    <path clip-path="url(#p16e5a1d751)" d="M 148.655455 307.584 
L 149.923636 307.584 
L 149.923636 213.788443 
L 148.655455 213.788443 
z
" style="fill:#1f77b4;"/>
   </g>
   <g id="patch_63">
    <path clip-path="url(#p16e5a1d751)" d="M 149.923636 307.584 
L 151.191818 307.584 
L 151.191818 215.942073 
L 149.923636 215.942073 
z
" style="fill:#1f77b4;"/>
   </g>
   <g id="patch_64">
    <path clip-path="url(#p16e5a1d751)" d="M 151.191818 307.584 
L 152.46 307.584 
L 152.46 214.304219 
L 151.191818 214.304219 
z
" style="fill:#1f77b4;"/>
   </g>
   <g id="patch_65">
    <path clip-path="url(#p16e5a1d751)" d="M 152.46 307.584 
L 153.728182 307.584 
L 153.728182 214.710525 
L 152.46 214.710525 
z
" style="fill:#1f77b4;"/>
   </g>
   <g id="patch_66">
    <path clip-path="url(#p16e5a1d751)" d="M 153.728182 307.584 
L 154.996364 307.584 
L 154.996364 214.36106 
L 153.728182 214.36106 
z
" style="fill:#1f77b4;"/>
   </g>
   <g id="patch_67">
    <path clip-path="url(#p16e5a1d751)" d="M 154.996364 307.584 
L 156.264545 307.584 
L 156.264545 211.853754 
L 154.996364 211.853754 
z
" style="fill:#1f77b4;"/>
   </g>
   <g id="patch_68">
    <path clip-path="url(#p16e5a1d751)" d="M 156.264545 307.584 
L 157.532727 307.584 
L 157.532727 213.017936 
L 156.264545 213.017936 
z
" style="fill:#1f77b4;"/>
   </g>
   <g id="patch_69">
    <path clip-path="url(#p16e5a1d751)" d="M 157.532727 307.584 
L 158.800909 307.584 
L 158.800909 212.788468 
L 157.532727 212.788468 
z
" style="fill:#1f77b4;"/>
   </g>
   <g id="patch_70">
    <path clip-path="url(#p16e5a1d751)" d="M 158.800909 307.584 
L 160.069091 307.584 
L 160.069091 214.249484 
L 158.800909 214.249484 
z
" style="fill:#1f77b4;"/>
   </g>
   <g id="patch_71">
    <path clip-path="url(#p16e5a1d751)" d="M 160.069091 307.584 
L 161.337273 307.584 
L 161.337273 213.683182 
L 160.069091 213.683182 
z
" style="fill:#1f77b4;"/>
   </g>
   <g id="patch_72">
    <path clip-path="url(#p16e5a1d751)" d="M 161.337273 307.584 
L 162.605455 307.584 
L 162.605455 212.199009 
L 161.337273 212.199009 
z
" style="fill:#1f77b4;"/>
   </g>
   <g id="patch_73">
    <path clip-path="url(#p16e5a1d751)" d="M 162.605455 307.584 
L 163.873636 307.584 
L 163.873636 207.567545 
L 162.605455 207.567545 
z
" style="fill:#1f77b4;"/>
   </g>
   <g id="patch_74">
    <path clip-path="url(#p16e5a1d751)" d="M 163.873636 307.584 
L 165.141818 307.584 
L 165.141818 204.043422 
L 163.873636 204.043422 
z
" style="fill:#1f77b4;"/>
   </g>
   <g id="patch_75">
    <path clip-path="url(#p16e5a1d751)" d="M 165.141818 307.584 
L 166.41 307.584 
L 166.41 199.27512 
L 165.141818 199.27512 
z
" style="fill:#1f77b4;"/>
   </g>
   <g id="patch_76">
    <path clip-path="url(#p16e5a1d751)" d="M 166.41 307.584 
L 167.678182 307.584 
L 167.678182 191.100587 
L 166.41 191.100587 
z
" style="fill:#1f77b4;"/>
   </g>
   <g id="patch_77">
    <path clip-path="url(#p16e5a1d751)" d="M 167.678182 307.584 
L 168.946364 307.584 
L 168.946364 183.719718 
L 167.678182 183.719718 
z
" style="fill:#1f77b4;"/>
   </g>
   <g id="patch_78">
    <path clip-path="url(#p16e5a1d751)" d="M 168.946364 307.584 
L 170.214545 307.584 
L 170.214545 175.703076 
L 168.946364 175.703076 
z
" style="fill:#1f77b4;"/>
   </g>
   <g id="patch_79">
    <path clip-path="url(#p16e5a1d751)" d="M 170.214545 307.584 
L 171.482727 307.584 
L 171.482727 161.577112 
L 170.214545 161.577112 
z
" style="fill:#1f77b4;"/>
   </g>
   <g id="patch_80">
    <path clip-path="url(#p16e5a1d751)" d="M 171.482727 307.584 
L 172.750909 307.584 
L 172.750909 155.055169 
L 171.482727 155.055169 
z
" style="fill:#1f77b4;"/>
   </g>
   <g id="patch_81">
    <path clip-path="url(#p16e5a1d751)" d="M 172.750909 307.584 
L 174.019091 307.584 
L 174.019091 147.987977 
L 172.750909 147.987977 
z
" style="fill:#1f77b4;"/>
   </g>
   <g id="patch_82">
    <path clip-path="url(#p16e5a1d751)" d="M 174.019091 307.584 
L 175.287273 307.584 
L 175.287273 143.975446 
L 174.019091 143.975446 
z
" style="fill:#1f77b4;"/>
   </g>
   <g id="patch_83">
    <path clip-path="url(#p16e5a1d751)" d="M 175.287273 307.584 
L 176.555455 307.584 
L 176.555455 143.657559 
L 175.287273 143.657559 
z
" style="fill:#1f77b4;"/>
   </g>
   <g id="patch_84">
    <path clip-path="url(#p16e5a1d751)" d="M 176.555455 307.584 
L 177.823636 307.584 
L 177.823636 149.781617 
L 176.555455 149.781617 
z
" style="fill:#1f77b4;"/>
   </g>
   <g id="patch_85">
    <path clip-path="url(#p16e5a1d751)" d="M 177.823636 307.584 
L 179.091818 307.584 
L 179.091818 156.236193 
L 177.823636 156.236193 
z
" style="fill:#1f77b4;"/>
   </g>
   <g id="patch_86">
    <path clip-path="url(#p16e5a1d751)" d="M 179.091818 307.584 
L 180.36 307.584 
L 180.36 164.907556 
L 179.091818 164.907556 
z
" style="fill:#1f77b4;"/>
   </g>
   <g id="patch_87">
    <path clip-path="url(#p16e5a1d751)" d="M 180.36 307.584 
L 181.628182 307.584 
L 181.628182 174.799941 
L 180.36 174.799941 
z
" style="fill:#1f77b4;"/>
   </g>
   <g id="patch_88">
    <path clip-path="url(#p16e5a1d751)" d="M 181.628182 307.584 
L 182.896364 307.584 
L 182.896364 177.568293 
L 181.628182 177.568293 
z
" style="fill:#1f77b4;"/>
   </g>
   <g id="patch_89">
    <path clip-path="url(#p16e5a1d751)" d="M 182.896364 307.584 
L 184.164545 307.584 
L 184.164545 185.454412 
L 182.896364 185.454412 
z
" style="fill:#1f77b4;"/>
   </g>
   <g id="patch_90">
    <path clip-path="url(#p16e5a1d751)" d="M 184.164545 307.584 
L 185.432727 307.584 
L 185.432727 186.658592 
L 184.164545 186.658592 
z
" style="fill:#1f77b4;"/>
   </g>
   <g id="patch_91">
    <path clip-path="url(#p16e5a1d751)" d="M 185.432727 307.584 
L 186.700909 307.584 
L 186.700909 189.87746 
L 185.432727 189.87746 
z
" style="fill:#1f77b4;"/>
   </g>
   <g id="patch_92">
    <path clip-path="url(#p16e5a1d751)" d="M 186.700909 307.584 
L 187.969091 307.584 
L 187.969091 192.399502 
L 186.700909 192.399502 
z
" style="fill:#1f77b4;"/>
   </g>
   <g id="patch_93">
    <path clip-path="url(#p16e5a1d751)" d="M 187.969091 307.584 
L 189.237273 307.584 
L 189.237273 192.637391 
L 187.969091 192.637391 
z
" style="fill:#1f77b4;"/>
   </g>
   <g id="patch_94">
    <path clip-path="url(#p16e5a1d751)" d="M 189.237273 307.584 
L 190.505455 307.584 
L 190.505455 194.144722 
L 189.237273 194.144722 
z
" style="fill:#1f77b4;"/>
   </g>
   <g id="patch_95">
    <path clip-path="url(#p16e5a1d751)" d="M 190.505455 307.584 
L 191.773636 307.584 
L 191.773636 196.666764 
L 190.505455 196.666764 
z
" style="fill:#1f77b4;"/>
   </g>
   <g id="patch_96">
    <path clip-path="url(#p16e5a1d751)" d="M 191.773636 307.584 
L 193.041818 307.584 
L 193.041818 195.885731 
L 191.773636 195.885731 
z
" style="fill:#1f77b4;"/>
   </g>
   <g id="patch_97">
    <path clip-path="url(#p16e5a1d751)" d="M 193.041818 307.584 
L 194.31 307.584 
L 194.31 199.37617 
L 193.041818 199.37617 
z
" style="fill:#1f77b4;"/>
   </g>
   <g id="patch_98">
    <path clip-path="url(#p16e5a1d751)" d="M 194.31 307.584 
L 195.578182 307.584 
L 195.578182 202.57188 
L 194.31 202.57188 
z
" style="fill:#1f77b4;"/>
   </g>
   <g id="patch_99">
    <path clip-path="url(#p16e5a1d751)" d="M 195.578182 307.584 
L 196.846364 307.584 
L 196.846364 203.407649 
L 195.578182 203.407649 
z
" style="fill:#1f77b4;"/>
   </g>
   <g id="patch_100">
    <path clip-path="url(#p16e5a1d751)" d="M 196.846364 307.584 
L 198.114545 307.584 
L 198.114545 206.57178 
L 196.846364 206.57178 
z
" style="fill:#1f77b4;"/>
   </g>
   <g id="patch_101">
    <path clip-path="url(#p16e5a1d751)" d="M 198.114545 307.584 
L 199.382727 307.584 
L 199.382727 209.531707 
L 198.114545 209.531707 
z
" style="fill:#1f77b4;"/>
   </g>
   <g id="patch_102">
    <path clip-path="url(#p16e5a1d751)" d="M 199.382727 307.584 
L 200.650909 307.584 
L 200.650909 210.407474 
L 199.382727 210.407474 
z
" style="fill:#1f77b4;"/>
   </g>
   <g id="patch_103">
    <path clip-path="url(#p16e5a1d751)" d="M 200.650909 307.584 
L 201.919091 307.584 
L 201.919091 212.754784 
L 200.650909 212.754784 
z
" style="fill:#1f77b4;"/>
   </g>
   <g id="patch_104">
    <path clip-path="url(#p16e5a1d751)" d="M 201.919091 307.584 
L 203.187273 307.584 
L 203.187273 212.622156 
L 201.919091 212.622156 
z
" style="fill:#1f77b4;"/>
   </g>
   <g id="patch_105">
    <path clip-path="url(#p16e5a1d751)" d="M 203.187273 307.584 
L 204.455455 307.584 
L 204.455455 213.226351 
L 203.187273 213.226351 
z
" style="fill:#1f77b4;"/>
   </g>
   <g id="patch_106">
    <path clip-path="url(#p16e5a1d751)" d="M 204.455455 307.584 
L 205.723636 307.584 
L 205.723636 213.434767 
L 204.455455 213.434767 
z
" style="fill:#1f77b4;"/>
   </g>
   <g id="patch_107">
    <path clip-path="url(#p16e5a1d751)" d="M 205.723636 307.584 
L 206.991818 307.584 
L 206.991818 213.670551 
L 205.723636 213.670551 
z
" style="fill:#1f77b4;"/>
   </g>
   <g id="patch_108">
    <path clip-path="url(#p16e5a1d751)" d="M 206.991818 307.584 
L 208.26 307.584 
L 208.26 210.96746 
L 206.991818 210.96746 
z
" style="fill:#1f77b4;"/>
   </g>
   <g id="patch_109">
    <path clip-path="url(#p16e5a1d751)" d="M 208.26 307.584 
L 209.528182 307.584 
L 209.528182 213.131617 
L 208.26 213.131617 
z
" style="fill:#1f77b4;"/>
   </g>
   <g id="patch_110">
    <path clip-path="url(#p16e5a1d751)" d="M 209.528182 307.584 
L 210.796364 307.584 
L 210.796364 213.470556 
L 209.528182 213.470556 
z
" style="fill:#1f77b4;"/>
   </g>
   <g id="patch_111">
    <path clip-path="url(#p16e5a1d751)" d="M 210.796364 307.584 
L 212.064545 307.584 
L 212.064545 212.285322 
L 210.796364 212.285322 
z
" style="fill:#1f77b4;"/>
   </g>
   <g id="patch_112">
    <path clip-path="url(#p16e5a1d751)" d="M 212.064545 307.584 
L 213.332727 307.584 
L 213.332727 210.946408 
L 212.064545 210.946408 
z
" style="fill:#1f77b4;"/>
   </g>
   <g id="patch_113">
    <path clip-path="url(#p16e5a1d751)" d="M 213.332727 307.584 
L 214.600909 307.584 
L 214.600909 210.354844 
L 213.332727 210.354844 
z
" style="fill:#1f77b4;"/>
   </g>
   <g id="patch_114">
    <path clip-path="url(#p16e5a1d751)" d="M 214.600909 307.584 
L 215.869091 307.584 
L 215.869091 209.813805 
L 214.600909 209.813805 
z
" style="fill:#1f77b4;"/>
   </g>
   <g id="patch_115">
    <path clip-path="url(#p16e5a1d751)" d="M 215.869091 307.584 
L 217.137273 307.584 
L 217.137273 208.072796 
L 215.869091 208.072796 
z
" style="fill:#1f77b4;"/>
   </g>
   <g id="patch_116">
    <path clip-path="url(#p16e5a1d751)" d="M 217.137273 307.584 
L 218.405455 307.584 
L 218.405455 208.079111 
L 217.137273 208.079111 
z
" style="fill:#1f77b4;"/>
   </g>
   <g id="patch_117">
    <path clip-path="url(#p16e5a1d751)" d="M 218.405455 307.584 
L 219.673636 307.584 
L 219.673636 207.188607 
L 218.405455 207.188607 
z
" style="fill:#1f77b4;"/>
   </g>
   <g id="patch_118">
    <path clip-path="url(#p16e5a1d751)" d="M 219.673636 307.584 
L 220.941818 307.584 
L 220.941818 209.175926 
L 219.673636 209.175926 
z
" style="fill:#1f77b4;"/>
   </g>
   <g id="patch_119">
    <path clip-path="url(#p16e5a1d751)" d="M 220.941818 307.584 
L 222.21 307.584 
L 222.21 208.380156 
L 220.941818 208.380156 
z
" style="fill:#1f77b4;"/>
   </g>
   <g id="patch_120">
    <path clip-path="url(#p16e5a1d751)" d="M 222.21 307.584 
L 223.478182 307.584 
L 223.478182 207.982272 
L 222.21 207.982272 
z
" style="fill:#1f77b4;"/>
   </g>
   <g id="patch_121">
    <path clip-path="url(#p16e5a1d751)" d="M 223.478182 307.584 
L 224.746364 307.584 
L 224.746364 203.679221 
L 223.478182 203.679221 
z
" style="fill:#1f77b4;"/>
   </g>
   <g id="patch_122">
    <path clip-path="url(#p16e5a1d751)" d="M 224.746364 307.584 
L 226.014545 307.584 
L 226.014545 206.832827 
L 224.746364 206.832827 
z
" style="fill:#1f77b4;"/>
   </g>
   <g id="patch_123">
    <path clip-path="url(#p16e5a1d751)" d="M 226.014545 307.584 
L 227.282727 307.584 
L 227.282727 207.752804 
L 226.014545 207.752804 
z
" style="fill:#1f77b4;"/>
   </g>
   <g id="patch_124">
    <path clip-path="url(#p16e5a1d751)" d="M 227.282727 307.584 
L 228.550909 307.584 
L 228.550909 205.76759 
L 227.282727 205.76759 
z
" style="fill:#1f77b4;"/>
   </g>
   <g id="patch_125">
    <path clip-path="url(#p16e5a1d751)" d="M 228.550909 307.584 
L 229.819091 307.584 
L 229.819091 203.232916 
L 228.550909 203.232916 
z
" style="fill:#1f77b4;"/>
   </g>
   <g id="patch_126">
    <path clip-path="url(#p16e5a1d751)" d="M 229.819091 307.584 
L 231.087273 307.584 
L 231.087273 201.814004 
L 229.819091 201.814004 
z
" style="fill:#1f77b4;"/>
   </g>
   <g id="patch_127">
    <path clip-path="url(#p16e5a1d751)" d="M 231.087273 307.584 
L 232.355455 307.584 
L 232.355455 200.510879 
L 231.087273 200.510879 
z
" style="fill:#1f77b4;"/>
   </g>
   <g id="patch_128">
    <path clip-path="url(#p16e5a1d751)" d="M 232.355455 307.584 
L 233.623636 307.584 
L 233.623636 198.763554 
L 232.355455 198.763554 
z
" style="fill:#1f77b4;"/>
   </g>
   <g id="patch_129">
    <path clip-path="url(#p16e5a1d751)" d="M 233.623636 307.584 
L 234.891818 307.584 
L 234.891818 197.182541 
L 233.623636 197.182541 
z
" style="fill:#1f77b4;"/>
   </g>
   <g id="patch_130">
    <path clip-path="url(#p16e5a1d751)" d="M 234.891818 307.584 
L 236.16 307.584 
L 236.16 196.043622 
L 234.891818 196.043622 
z
" style="fill:#1f77b4;"/>
   </g>
   <g id="patch_131">
    <path clip-path="url(#p16e5a1d751)" d="M 236.16 307.584 
L 237.428182 307.584 
L 237.428182 198.645662 
L 236.16 198.645662 
z
" style="fill:#1f77b4;"/>
   </g>
   <g id="patch_132">
    <path clip-path="url(#p16e5a1d751)" d="M 237.428182 307.584 
L 238.696364 307.584 
L 238.696364 200.037206 
L 237.428182 200.037206 
z
" style="fill:#1f77b4;"/>
   </g>
   <g id="patch_133">
    <path clip-path="url(#p16e5a1d751)" d="M 238.696364 307.584 
L 239.964545 307.584 
L 239.964545 207.441232 
L 238.696364 207.441232 
z
" style="fill:#1f77b4;"/>
   </g>
   <g id="patch_134">
    <path clip-path="url(#p16e5a1d751)" d="M 239.964545 307.584 
L 241.232727 307.584 
L 241.232727 211.489553 
L 239.964545 211.489553 
z
" style="fill:#1f77b4;"/>
   </g>
   <g id="patch_135">
    <path clip-path="url(#p16e5a1d751)" d="M 241.232727 307.584 
L 242.500909 307.584 
L 242.500909 215.495769 
L 241.232727 215.495769 
z
" style="fill:#1f77b4;"/>
   </g>
   <g id="patch_136">
    <path clip-path="url(#p16e5a1d751)" d="M 242.500909 307.584 
L 243.769091 307.584 
L 243.769091 218.333593 
L 242.500909 218.333593 
z
" style="fill:#1f77b4;"/>
   </g>
   <g id="patch_137">
    <path clip-path="url(#p16e5a1d751)" d="M 243.769091 307.584 
L 245.037273 307.584 
L 245.037273 220.061971 
L 243.769091 220.061971 
z
" style="fill:#1f77b4;"/>
   </g>
   <g id="patch_138">
    <path clip-path="url(#p16e5a1d751)" d="M 245.037273 307.584 
L 246.305455 307.584 
L 246.305455 219.716716 
L 245.037273 219.716716 
z
" style="fill:#1f77b4;"/>
   </g>
   <g id="patch_139">
    <path clip-path="url(#p16e5a1d751)" d="M 246.305455 307.584 
L 247.573636 307.584 
L 247.573636 218.739898 
L 246.305455 218.739898 
z
" style="fill:#1f77b4;"/>
   </g>
   <g id="patch_140">
    <path clip-path="url(#p16e5a1d751)" d="M 247.573636 307.584 
L 248.841818 307.584 
L 248.841818 216.537848 
L 247.573636 216.537848 
z
" style="fill:#1f77b4;"/>
   </g>
   <g id="patch_141">
    <path clip-path="url(#p16e5a1d751)" d="M 248.841818 307.584 
L 250.11 307.584 
L 250.11 212.506369 
L 248.841818 212.506369 
z
" style="fill:#1f77b4;"/>
   </g>
   <g id="patch_142">
    <path clip-path="url(#p16e5a1d751)" d="M 250.11 307.584 
L 251.378182 307.584 
L 251.378182 212.801099 
L 250.11 212.801099 
z
" style="fill:#1f77b4;"/>
   </g>
   <g id="patch_143">
    <path clip-path="url(#p16e5a1d751)" d="M 251.378182 307.584 
L 252.646364 307.584 
L 252.646364 212.032697 
L 251.378182 212.032697 
z
" style="fill:#1f77b4;"/>
   </g>
   <g id="patch_144">
    <path clip-path="url(#p16e5a1d751)" d="M 252.646364 307.584 
L 253.914545 307.584 
L 253.914545 209.135927 
L 252.646364 209.135927 
z
" style="fill:#1f77b4;"/>
   </g>
   <g id="patch_145">
    <path clip-path="url(#p16e5a1d751)" d="M 253.914545 307.584 
L 255.182727 307.584 
L 255.182727 206.641252 
L 253.914545 206.641252 
z
" style="fill:#1f77b4;"/>
   </g>
   <g id="patch_146">
    <path clip-path="url(#p16e5a1d751)" d="M 255.182727 307.584 
L 256.450909 307.584 
L 256.450909 206.085477 
L 255.182727 206.085477 
z
" style="fill:#1f77b4;"/>
   </g>
   <g id="patch_147">
    <path clip-path="url(#p16e5a1d751)" d="M 256.450909 307.584 
L 257.719091 307.584 
L 257.719091 197.67095 
L 256.450909 197.67095 
z
" style="fill:#1f77b4;"/>
   </g>
   <g id="patch_148">
    <path clip-path="url(#p16e5a1d751)" d="M 257.719091 307.584 
L 258.987273 307.584 
L 258.987273 199.940367 
L 257.719091 199.940367 
z
" style="fill:#1f77b4;"/>
   </g>
   <g id="patch_149">
    <path clip-path="url(#p16e5a1d751)" d="M 258.987273 307.584 
L 260.255455 307.584 
L 260.255455 201.380331 
L 258.987273 201.380331 
z
" style="fill:#1f77b4;"/>
   </g>
   <g id="patch_150">
    <path clip-path="url(#p16e5a1d751)" d="M 260.255455 307.584 
L 261.523636 307.584 
L 261.523636 201.662429 
L 260.255455 201.662429 
z
" style="fill:#1f77b4;"/>
   </g>
   <g id="patch_151">
    <path clip-path="url(#p16e5a1d751)" d="M 261.523636 307.584 
L 262.791818 307.584 
L 262.791818 207.146503 
L 261.523636 207.146503 
z
" style="fill:#1f77b4;"/>
   </g>
   <g id="patch_152">
    <path clip-path="url(#p16e5a1d751)" d="M 262.791818 307.584 
L 264.06 307.584 
L 264.06 208.184372 
L 262.791818 208.184372 
z
" style="fill:#1f77b4;"/>
   </g>
   <g id="patch_153">
    <path clip-path="url(#p16e5a1d751)" d="M 264.06 307.584 
L 265.328182 307.584 
L 265.328182 206.127581 
L 264.06 206.127581 
z
" style="fill:#1f77b4;"/>
   </g>
   <g id="patch_154">
    <path clip-path="url(#p16e5a1d751)" d="M 265.328182 307.584 
L 266.596364 307.584 
L 266.596364 210.674836 
L 265.328182 210.674836 
z
" style="fill:#1f77b4;"/>
   </g>
   <g id="patch_155">
    <path clip-path="url(#p16e5a1d751)" d="M 266.596364 307.584 
L 267.864545 307.584 
L 267.864545 199.0246 
L 266.596364 199.0246 
z
" style="fill:#1f77b4;"/>
   </g>
   <g id="patch_156">
    <path clip-path="url(#p16e5a1d751)" d="M 267.864545 307.584 
L 269.132727 307.584 
L 269.132727 201.826636 
L 267.864545 201.826636 
z
" style="fill:#1f77b4;"/>
   </g>
   <g id="patch_157">
    <path clip-path="url(#p16e5a1d751)" d="M 269.132727 307.584 
L 270.400909 307.584 
L 270.400909 200.691927 
L 269.132727 200.691927 
z
" style="fill:#1f77b4;"/>
   </g>
   <g id="patch_158">
    <path clip-path="url(#p16e5a1d751)" d="M 270.400909 307.584 
L 271.669091 307.584 
L 271.669091 197.601478 
L 270.400909 197.601478 
z
" style="fill:#1f77b4;"/>
   </g>
   <g id="patch_159">
    <path clip-path="url(#p16e5a1d751)" d="M 271.669091 307.584 
L 272.937273 307.584 
L 272.937273 195.969939 
L 271.669091 195.969939 
z
" style="fill:#1f77b4;"/>
   </g>
   <g id="patch_160">
    <path clip-path="url(#p16e5a1d751)" d="M 272.937273 307.584 
L 274.205455 307.584 
L 274.205455 202.333991 
L 272.937273 202.333991 
z
" style="fill:#1f77b4;"/>
   </g>
   <g id="patch_161">
    <path clip-path="url(#p16e5a1d751)" d="M 274.205455 307.584 
L 275.473636 307.584 
L 275.473636 200.927711 
L 274.205455 200.927711 
z
" style="fill:#1f77b4;"/>
   </g>
   <g id="patch_162">
    <path clip-path="url(#p16e5a1d751)" d="M 275.473636 307.584 
L 276.741818 307.584 
L 276.741818 189.711148 
L 275.473636 189.711148 
z
" style="fill:#1f77b4;"/>
   </g>
   <g id="patch_163">
    <path clip-path="url(#p16e5a1d751)" d="M 276.741818 307.584 
L 278.01 307.584 
L 278.01 192.793176 
L 276.741818 192.793176 
z
" style="fill:#1f77b4;"/>
   </g>
   <g id="patch_164">
    <path clip-path="url(#p16e5a1d751)" d="M 278.01 307.584 
L 279.278182 307.584 
L 279.278182 198.163569 
L 278.01 198.163569 
z
" style="fill:#1f77b4;"/>
   </g>
   <g id="patch_165">
    <path clip-path="url(#p16e5a1d751)" d="M 279.278182 307.584 
L 280.546364 307.584 
L 280.546364 190.235345 
L 279.278182 190.235345 
z
" style="fill:#1f77b4;"/>
   </g>
   <g id="patch_166">
    <path clip-path="url(#p16e5a1d751)" d="M 280.546364 307.584 
L 281.814545 307.584 
L 281.814545 191.250057 
L 280.546364 191.250057 
z
" style="fill:#1f77b4;"/>
   </g>
   <g id="patch_167">
    <path clip-path="url(#p16e5a1d751)" d="M 281.814545 307.584 
L 283.082727 307.584 
L 283.082727 189.239581 
L 281.814545 189.239581 
z
" style="fill:#1f77b4;"/>
   </g>
   <g id="patch_168">
    <path clip-path="url(#p16e5a1d751)" d="M 283.082727 307.584 
L 284.350909 307.584 
L 284.350909 207.71912 
L 283.082727 207.71912 
z
" style="fill:#1f77b4;"/>
   </g>
   <g id="patch_169">
    <path clip-path="url(#p16e5a1d751)" d="M 284.350909 307.584 
L 285.619091 307.584 
L 285.619091 212.817941 
L 284.350909 212.817941 
z
" style="fill:#1f77b4;"/>
   </g>
   <g id="patch_170">
    <path clip-path="url(#p16e5a1d751)" d="M 285.619091 307.584 
L 286.887273 307.584 
L 286.887273 216.05786 
L 285.619091 216.05786 
z
" style="fill:#1f77b4;"/>
   </g>
   <g id="patch_171">
    <path clip-path="url(#p16e5a1d751)" d="M 286.887273 307.584 
L 288.155455 307.584 
L 288.155455 212.506369 
L 286.887273 212.506369 
z
" style="fill:#1f77b4;"/>
   </g>
   <g id="patch_172">
    <path clip-path="url(#p16e5a1d751)" d="M 288.155455 307.584 
L 289.423636 307.584 
L 289.423636 208.969615 
L 288.155455 208.969615 
z
" style="fill:#1f77b4;"/>
   </g>
   <g id="patch_173">
    <path clip-path="url(#p16e5a1d751)" d="M 289.423636 307.584 
L 290.691818 307.584 
L 290.691818 204.209734 
L 289.423636 204.209734 
z
" style="fill:#1f77b4;"/>
   </g>
   <g id="patch_174">
    <path clip-path="url(#p16e5a1d751)" d="M 290.691818 307.584 
L 291.96 307.584 
L 291.96 200.925605 
L 290.691818 200.925605 
z
" style="fill:#1f77b4;"/>
   </g>
   <g id="patch_175">
    <path clip-path="url(#p16e5a1d751)" d="M 291.96 307.584 
L 293.228182 307.584 
L 293.228182 199.988787 
L 291.96 199.988787 
z
" style="fill:#1f77b4;"/>
   </g>
   <g id="patch_176">
    <path clip-path="url(#p16e5a1d751)" d="M 293.228182 307.584 
L 294.496364 307.584 
L 294.496364 191.264793 
L 293.228182 191.264793 
z
" style="fill:#1f77b4;"/>
   </g>
   <g id="patch_177">
    <path clip-path="url(#p16e5a1d751)" d="M 294.496364 307.584 
L 295.764545 307.584 
L 295.764545 189.887986 
L 294.496364 189.887986 
z
" style="fill:#1f77b4;"/>
   </g>
   <g id="patch_178">
    <path clip-path="url(#p16e5a1d751)" d="M 295.764545 307.584 
L 297.032727 307.584 
L 297.032727 188.48381 
L 295.764545 188.48381 
z
" style="fill:#1f77b4;"/>
   </g>
   <g id="patch_179">
    <path clip-path="url(#p16e5a1d751)" d="M 297.032727 307.584 
L 298.300909 307.584 
L 298.300909 186.616488 
L 297.032727 186.616488 
z
" style="fill:#1f77b4;"/>
   </g>
   <g id="patch_180">
    <path clip-path="url(#p16e5a1d751)" d="M 298.300909 307.584 
L 299.569091 307.584 
L 299.569091 188.814328 
L 298.300909 188.814328 
z
" style="fill:#1f77b4;"/>
   </g>
   <g id="patch_181">
    <path clip-path="url(#p16e5a1d751)" d="M 299.569091 307.584 
L 300.837273 307.584 
L 300.837273 183.056577 
L 299.569091 183.056577 
z
" style="fill:#1f77b4;"/>
   </g>
   <g id="patch_182">
    <path clip-path="url(#p16e5a1d751)" d="M 300.837273 307.584 
L 302.105455 307.584 
L 302.105455 185.227049 
L 300.837273 185.227049 
z
" style="fill:#1f77b4;"/>
   </g>
   <g id="patch_183">
    <path clip-path="url(#p16e5a1d751)" d="M 302.105455 307.584 
L 303.373636 307.584 
L 303.373636 192.071089 
L 302.105455 192.071089 
z
" style="fill:#1f77b4;"/>
   </g>
   <g id="patch_184">
    <path clip-path="url(#p16e5a1d751)" d="M 303.373636 307.584 
L 304.641818 307.584 
L 304.641818 198.967759 
L 303.373636 198.967759 
z
" style="fill:#1f77b4;"/>
   </g>
   <g id="patch_185">
    <path clip-path="url(#p16e5a1d751)" d="M 304.641818 307.584 
L 305.91 307.584 
L 305.91 205.46444 
L 304.641818 205.46444 
z
" style="fill:#1f77b4;"/>
   </g>
   <g id="patch_186">
    <path clip-path="url(#p16e5a1d751)" d="M 305.91 307.584 
L 307.178182 307.584 
L 307.178182 210.430632 
L 305.91 210.430632 
z
" style="fill:#1f77b4;"/>
   </g>
   <g id="patch_187">
    <path clip-path="url(#p16e5a1d751)" d="M 307.178182 307.584 
L 308.446364 307.584 
L 308.446364 208.839092 
L 307.178182 208.839092 
z
" style="fill:#1f77b4;"/>
   </g>
   <g id="patch_188">
    <path clip-path="url(#p16e5a1d751)" d="M 308.446364 307.584 
L 309.714545 307.584 
L 309.714545 197.009913 
L 308.446364 197.009913 
z
" style="fill:#1f77b4;"/>
   </g>
   <g id="patch_189">
    <path clip-path="url(#p16e5a1d751)" d="M 309.714545 307.584 
L 310.982727 307.584 
L 310.982727 190.839541 
L 309.714545 190.839541 
z
" style="fill:#1f77b4;"/>
   </g>
   <g id="patch_190">
    <path clip-path="url(#p16e5a1d751)" d="M 310.982727 307.584 
L 312.250909 307.584 
L 312.250909 177.231459 
L 310.982727 177.231459 
z
" style="fill:#1f77b4;"/>
   </g>
   <g id="patch_191">
    <path clip-path="url(#p16e5a1d751)" d="M 312.250909 307.584 
L 313.519091 307.584 
L 313.519091 185.189155 
L 312.250909 185.189155 
z
" style="fill:#1f77b4;"/>
   </g>
   <g id="patch_192">
    <path clip-path="url(#p16e5a1d751)" d="M 313.519091 307.584 
L 314.787273 307.584 
L 314.787273 199.729846 
L 313.519091 199.729846 
z
" style="fill:#1f77b4;"/>
   </g>
   <g id="patch_193">
    <path clip-path="url(#p16e5a1d751)" d="M 314.787273 307.584 
L 316.055455 307.584 
L 316.055455 209.990643 
L 314.787273 209.990643 
z
" style="fill:#1f77b4;"/>
   </g>
   <g id="patch_194">
    <path clip-path="url(#p16e5a1d751)" d="M 316.055455 307.584 
L 317.323636 307.584 
L 317.323636 221.75456 
L 316.055455 221.75456 
z
" style="fill:#1f77b4;"/>
   </g>
   <g id="patch_195">
    <path clip-path="url(#p16e5a1d751)" d="M 317.323636 307.584 
L 318.591818 307.584 
L 318.591818 214.876837 
L 317.323636 214.876837 
z
" style="fill:#1f77b4;"/>
   </g>
   <g id="patch_196">
    <path clip-path="url(#p16e5a1d751)" d="M 318.591818 307.584 
L 319.86 307.584 
L 319.86 210.641153 
L 318.591818 210.641153 
z
" style="fill:#1f77b4;"/>
   </g>
   <g id="patch_197">
    <path clip-path="url(#p16e5a1d751)" d="M 319.86 307.584 
L 321.128182 307.584 
L 321.128182 235.617372 
L 319.86 235.617372 
z
" style="fill:#1f77b4;"/>
   </g>
   <g id="patch_198">
    <path clip-path="url(#p16e5a1d751)" d="M 321.128182 307.584 
L 322.396364 307.584 
L 322.396364 227.659676 
L 321.128182 227.659676 
z
" style="fill:#1f77b4;"/>
   </g>
   <g id="patch_199">
    <path clip-path="url(#p16e5a1d751)" d="M 322.396364 307.584 
L 323.664545 307.584 
L 323.664545 226.339709 
L 322.396364 226.339709 
z
" style="fill:#1f77b4;"/>
   </g>
   <g id="patch_200">
    <path clip-path="url(#p16e5a1d751)" d="M 323.664545 307.584 
L 324.932727 307.584 
L 324.932727 225.165001 
L 323.664545 225.165001 
z
" style="fill:#1f77b4;"/>
   </g>
   <g id="patch_201">
    <path clip-path="url(#p16e5a1d751)" d="M 324.932727 307.584 
L 326.200909 307.584 
L 326.200909 224.809221 
L 324.932727 224.809221 
z
" style="fill:#1f77b4;"/>
   </g>
   <g id="patch_202">
    <path clip-path="url(#p16e5a1d751)" d="M 326.200909 307.584 
L 327.469091 307.584 
L 327.469091 181.380829 
L 326.200909 181.380829 
z
" style="fill:#1f77b4;"/>
   </g>
   <g id="patch_203">
    <path clip-path="url(#p16e5a1d751)" d="M 327.469091 307.584 
L 328.737273 307.584 
L 328.737273 201.384541 
L 327.469091 201.384541 
z
" style="fill:#1f77b4;"/>
   </g>
   <g id="patch_204">
    <path clip-path="url(#p16e5a1d751)" d="M 328.737273 307.584 
L 330.005455 307.584 
L 330.005455 200.47509 
L 328.737273 200.47509 
z
" style="fill:#1f77b4;"/>
   </g>
   <g id="patch_205">
    <path clip-path="url(#p16e5a1d751)" d="M 330.005455 307.584 
L 331.273636 307.584 
L 331.273636 203.102393 
L 330.005455 203.102393 
z
" style="fill:#1f77b4;"/>
   </g>
   <g id="patch_206">
    <path clip-path="url(#p16e5a1d751)" d="M 331.273636 307.584 
L 332.541818 307.584 
L 332.541818 194.847862 
L 331.273636 194.847862 
z
" style="fill:#1f77b4;"/>
   </g>
   <g id="patch_207">
    <path clip-path="url(#p16e5a1d751)" d="M 332.541818 307.584 
L 333.81 307.584 
L 333.81 195.193117 
L 332.541818 195.193117 
z
" style="fill:#1f77b4;"/>
   </g>
   <g id="patch_208">
    <path clip-path="url(#p16e5a1d751)" d="M 333.81 307.584 
L 335.078182 307.584 
L 335.078182 180.517693 
L 333.81 180.517693 
z
" style="fill:#1f77b4;"/>
   </g>
   <g id="patch_209">
    <path clip-path="url(#p16e5a1d751)" d="M 335.078182 307.584 
L 336.346364 307.584 
L 336.346364 182.321858 
L 335.078182 182.321858 
z
" style="fill:#1f77b4;"/>
   </g>
   <g id="patch_210">
    <path clip-path="url(#p16e5a1d751)" d="M 336.346364 307.584 
L 337.614545 307.584 
L 337.614545 189.224844 
L 336.346364 189.224844 
z
" style="fill:#1f77b4;"/>
   </g>
   <g id="patch_211">
    <path clip-path="url(#p16e5a1d751)" d="M 337.614545 307.584 
L 338.882727 307.584 
L 338.882727 202.22452 
L 337.614545 202.22452 
z
" style="fill:#1f77b4;"/>
   </g>
   <g id="patch_212">
    <path clip-path="url(#p16e5a1d751)" d="M 338.882727 307.584 
L 340.150909 307.584 
L 340.150909 195.997307 
L 338.882727 195.997307 
z
" style="fill:#1f77b4;"/>
   </g>
   <g id="patch_213">
    <path clip-path="url(#p16e5a1d751)" d="M 340.150909 307.584 
L 341.419091 307.584 
L 341.419091 211.31482 
L 340.150909 211.31482 
z
" style="fill:#1f77b4;"/>
   </g>
   <g id="patch_214">
    <path clip-path="url(#p16e5a1d751)" d="M 341.419091 307.584 
L 342.687273 307.584 
L 342.687273 190.727965 
L 341.419091 190.727965 
z
" style="fill:#1f77b4;"/>
   </g>
   <g id="patch_215">
    <path clip-path="url(#p16e5a1d751)" d="M 342.687273 307.584 
L 343.955455 307.584 
L 343.955455 171.010561 
L 342.687273 171.010561 
z
" style="fill:#1f77b4;"/>
   </g>
   <g id="patch_216">
    <path clip-path="url(#p16e5a1d751)" d="M 343.955455 307.584 
L 345.223636 307.584 
L 345.223636 205.7718 
L 343.955455 205.7718 
z
" style="fill:#1f77b4;"/>
   </g>
   <g id="patch_217">
    <path clip-path="url(#p16e5a1d751)" d="M 345.223636 307.584 
L 346.491818 307.584 
L 346.491818 200.291937 
L 345.223636 200.291937 
z
" style="fill:#1f77b4;"/>
   </g>
   <g id="patch_218">
    <path clip-path="url(#p16e5a1d751)" d="M 346.491818 307.584 
L 347.76 307.584 
L 347.76 179.157727 
L 346.491818 179.157727 
z
" style="fill:#1f77b4;"/>
   </g>
   <g id="patch_219">
    <path clip-path="url(#p16e5a1d751)" d="M 347.76 307.584 
L 349.028182 307.584 
L 349.028182 161.25712 
L 347.76 161.25712 
z
" style="fill:#1f77b4;"/>
   </g>
   <g id="patch_220">
    <path clip-path="url(#p16e5a1d751)" d="M 349.028182 307.584 
L 350.296364 307.584 
L 350.296364 162.880238 
L 349.028182 162.880238 
z
" style="fill:#1f77b4;"/>
   </g>
   <g id="patch_221">
    <path clip-path="url(#p16e5a1d751)" d="M 350.296364 307.584 
L 351.564545 307.584 
L 351.564545 170.170582 
L 350.296364 170.170582 
z
" style="fill:#1f77b4;"/>
   </g>
   <g id="patch_222">
    <path clip-path="url(#p16e5a1d751)" d="M 351.564545 307.584 
L 352.832727 307.584 
L 352.832727 194.241561 
L 351.564545 194.241561 
z
" style="fill:#1f77b4;"/>
   </g>
   <g id="patch_223">
    <path clip-path="url(#p16e5a1d751)" d="M 352.832727 307.584 
L 354.100909 307.584 
L 354.100909 210.624311 
L 352.832727 210.624311 
z
" style="fill:#1f77b4;"/>
   </g>
   <g id="patch_224">
    <path clip-path="url(#p16e5a1d751)" d="M 354.100909 307.584 
L 355.369091 307.584 
L 355.369091 214.243168 
L 354.100909 214.243168 
z
" style="fill:#1f77b4;"/>
   </g>
   <g id="patch_225">
    <path clip-path="url(#p16e5a1d751)" d="M 355.369091 307.584 
L 356.637273 307.584 
L 356.637273 225.527098 
L 355.369091 225.527098 
z
" style="fill:#1f77b4;"/>
   </g>
   <g id="patch_226">
    <path clip-path="url(#p16e5a1d751)" d="M 356.637273 307.584 
L 357.905455 307.584 
L 357.905455 218.914631 
L 356.637273 218.914631 
z
" style="fill:#1f77b4;"/>
   </g>
   <g id="patch_227">
    <path clip-path="url(#p16e5a1d751)" d="M 357.905455 307.584 
L 359.173636 307.584 
L 359.173636 200.872975 
L 357.905455 200.872975 
z
" style="fill:#1f77b4;"/>
   </g>
   <g id="patch_228">
    <path clip-path="url(#p16e5a1d751)" d="M 359.173636 307.584 
L 360.441818 307.584 
L 360.441818 195.209958 
L 359.173636 195.209958 
z
" style="fill:#1f77b4;"/>
   </g>
   <g id="patch_229">
    <path clip-path="url(#p16e5a1d751)" d="M 360.441818 307.584 
L 361.71 307.584 
L 361.71 211.748494 
L 360.441818 211.748494 
z
" style="fill:#1f77b4;"/>
   </g>
   <g id="patch_230">
    <path clip-path="url(#p16e5a1d751)" d="M 361.71 307.584 
L 362.978182 307.584 
L 362.978182 193.292111 
L 361.71 193.292111 
z
" style="fill:#1f77b4;"/>
   </g>
   <g id="patch_231">
    <path clip-path="url(#p16e5a1d751)" d="M 362.978182 307.584 
L 364.246364 307.584 
L 364.246364 197.915154 
L 362.978182 197.915154 
z
" style="fill:#1f77b4;"/>
   </g>
   <g id="patch_232">
    <path clip-path="url(#p16e5a1d751)" d="M 364.246364 307.584 
L 365.514545 307.584 
L 365.514545 193.214219 
L 364.246364 193.214219 
z
" style="fill:#1f77b4;"/>
   </g>
   <g id="patch_233">
    <path clip-path="url(#p16e5a1d751)" d="M 365.514545 307.584 
L 366.782727 307.584 
L 366.782727 198.266724 
L 365.514545 198.266724 
z
" style="fill:#1f77b4;"/>
   </g>
   <g id="patch_234">
    <path clip-path="url(#p16e5a1d751)" d="M 366.782727 307.584 
L 368.050909 307.584 
L 368.050909 217.765186 
L 366.782727 217.765186 
z
" style="fill:#1f77b4;"/>
   </g>
   <g id="patch_235">
    <path clip-path="url(#p16e5a1d751)" d="M 368.050909 307.584 
L 369.319091 307.584 
L 369.319091 236.69103 
L 368.050909 236.69103 
z
" style="fill:#1f77b4;"/>
   </g>
   <g id="patch_236">
    <path clip-path="url(#p16e5a1d751)" d="M 369.319091 307.584 
L 370.587273 307.584 
L 370.587273 245.13503 
L 369.319091 245.13503 
z
" style="fill:#1f77b4;"/>
   </g>
   <g id="patch_237">
    <path clip-path="url(#p16e5a1d751)" d="M 370.587273 307.584 
L 371.855455 307.584 
L 371.855455 249.787546 
L 370.587273 249.787546 
z
" style="fill:#1f77b4;"/>
   </g>
   <g id="patch_238">
    <path clip-path="url(#p16e5a1d751)" d="M 371.855455 307.584 
L 373.123636 307.584 
L 373.123636 240.94145 
L 371.855455 240.94145 
z
" style="fill:#1f77b4;"/>
   </g>
   <g id="patch_239">
    <path clip-path="url(#p16e5a1d751)" d="M 373.123636 307.584 
L 374.391818 307.584 
L 374.391818 238.79203 
L 373.123636 238.79203 
z
" style="fill:#1f77b4;"/>
   </g>
   <g id="patch_240">
    <path clip-path="url(#p16e5a1d751)" d="M 374.391818 307.584 
L 375.66 307.584 
L 375.66 232.575343 
L 374.391818 232.575343 
z
" style="fill:#1f77b4;"/>
   </g>
   <g id="patch_241">
    <path clip-path="url(#p16e5a1d751)" d="M 375.66 307.584 
L 376.928182 307.584 
L 376.928182 242.863508 
L 375.66 242.863508 
z
" style="fill:#1f77b4;"/>
   </g>
   <g id="patch_242">
    <path clip-path="url(#p16e5a1d751)" d="M 376.928182 307.584 
L 378.196364 307.584 
L 378.196364 249.423344 
L 376.928182 249.423344 
z
" style="fill:#1f77b4;"/>
   </g>
   <g id="patch_243">
    <path clip-path="url(#p16e5a1d751)" d="M 378.196364 307.584 
L 379.464545 307.584 
L 379.464545 247.743386 
L 378.196364 247.743386 
z
" style="fill:#1f77b4;"/>
   </g>
   <g id="patch_244">
    <path clip-path="url(#p16e5a1d751)" d="M 379.464545 307.584 
L 380.732727 307.584 
L 380.732727 244.271894 
L 379.464545 244.271894 
z
" style="fill:#1f77b4;"/>
   </g>
   <g id="patch_245">
    <path clip-path="url(#p16e5a1d751)" d="M 380.732727 307.584 
L 382.000909 307.584 
L 382.000909 230.672232 
L 380.732727 230.672232 
z
" style="fill:#1f77b4;"/>
   </g>
   <g id="patch_246">
    <path clip-path="url(#p16e5a1d751)" d="M 382.000909 307.584 
L 383.269091 307.584 
L 383.269091 250.332795 
L 382.000909 250.332795 
z
" style="fill:#1f77b4;"/>
   </g>
   <g id="patch_247">
    <path clip-path="url(#p16e5a1d751)" d="M 383.269091 307.584 
L 384.537273 307.584 
L 384.537273 264.494547 
L 383.269091 264.494547 
z
" style="fill:#1f77b4;"/>
   </g>
   <g id="patch_248">
    <path clip-path="url(#p16e5a1d751)" d="M 384.537273 307.584 
L 385.805455 307.584 
L 385.805455 260.324125 
L 384.537273 260.324125 
z
" style="fill:#1f77b4;"/>
   </g>
   <g id="patch_249">
    <path clip-path="url(#p16e5a1d751)" d="M 385.805455 307.584 
L 387.073636 307.584 
L 387.073636 253.195882 
L 385.805455 253.195882 
z
" style="fill:#1f77b4;"/>
   </g>
   <g id="patch_250">
    <path clip-path="url(#p16e5a1d751)" d="M 387.073636 307.584 
L 388.341818 307.584 
L 388.341818 248.998092 
L 387.073636 248.998092 
z
" style="fill:#1f77b4;"/>
   </g>
   <g id="patch_251">
    <path clip-path="url(#p16e5a1d751)" d="M 388.341818 307.584 
L 389.61 307.584 
L 389.61 251.682235 
L 388.341818 251.682235 
z
" style="fill:#1f77b4;"/>
   </g>
   <g id="patch_252">
    <path clip-path="url(#p16e5a1d751)" d="M 389.61 307.584 
L 390.878182 307.584 
L 390.878182 264.999798 
L 389.61 264.999798 
z
" style="fill:#1f77b4;"/>
   </g>
   <g id="patch_253">
    <path clip-path="url(#p16e5a1d751)" d="M 390.878182 307.584 
L 392.146364 307.584 
L 392.146364 258.223125 
L 390.878182 258.223125 
z
" style="fill:#1f77b4;"/>
   </g>
   <g id="patch_254">
    <path clip-path="url(#p16e5a1d751)" d="M 392.146364 307.584 
L 393.414545 307.584 
L 393.414545 252.888521 
L 392.146364 252.888521 
z
" style="fill:#1f77b4;"/>
   </g>
   <g id="patch_255">
    <path clip-path="url(#p16e5a1d751)" d="M 393.414545 307.584 
L 394.682727 307.584 
L 394.682727 196.889916 
L 393.414545 196.889916 
z
" style="fill:#1f77b4;"/>
   </g>
   <g id="patch_256">
    <path clip-path="url(#p16e5a1d751)" d="M 394.682727 307.584 
L 395.950909 307.584 
L 395.950909 54.144 
L 394.682727 54.144 
z
" style="fill:#1f77b4;"/>
   </g>
   <g id="patch_257">
    <path clip-path="url(#p16e5a1d751)" d="M 395.950909 307.584 
L 397.219091 307.584 
L 397.219091 67.672084 
L 395.950909 67.672084 
z
" style="fill:#1f77b4;"/>
   </g>
   <g id="patch_258">
    <path clip-path="url(#p16e5a1d751)" d="M 397.219091 307.584 
L 398.487273 307.584 
L 398.487273 300.725224 
L 397.219091 300.725224 
z
" style="fill:#1f77b4;"/>
   </g>
   <g id="matplotlib.axis_1">
    <g id="xtick_1">
     <g id="line2d_1">
      <defs>
       <path d="M 0 0 
L 0 3.5 
" id="ma5a72347a6" style="stroke:#000000;stroke-width:0.8;"/>
      </defs>
      <g>
       <use style="stroke:#000000;stroke-width:0.8;" x="73.832727" xlink:href="#ma5a72347a6" y="307.584"/>
      </g>
     </g>
     <g id="text_1">
      <!-- 0 -->
      <g transform="translate(70.651477 322.182437)scale(0.1 -0.1)">
       <defs>
        <path d="M 2034 4250 
Q 1547 4250 1301 3770 
Q 1056 3291 1056 2328 
Q 1056 1369 1301 889 
Q 1547 409 2034 409 
Q 2525 409 2770 889 
Q 3016 1369 3016 2328 
Q 3016 3291 2770 3770 
Q 2525 4250 2034 4250 
z
M 2034 4750 
Q 2819 4750 3233 4129 
Q 3647 3509 3647 2328 
Q 3647 1150 3233 529 
Q 2819 -91 2034 -91 
Q 1250 -91 836 529 
Q 422 1150 422 2328 
Q 422 3509 836 4129 
Q 1250 4750 2034 4750 
z
" id="DejaVuSans-30" transform="scale(0.015625)"/>
       </defs>
       <use xlink:href="#DejaVuSans-30"/>
      </g>
     </g>
    </g>
    <g id="xtick_2">
     <g id="line2d_2">
      <g>
       <use style="stroke:#000000;stroke-width:0.8;" x="137.241818" xlink:href="#ma5a72347a6" y="307.584"/>
      </g>
     </g>
     <g id="text_2">
      <!-- 50 -->
      <g transform="translate(130.879318 322.182437)scale(0.1 -0.1)">
       <defs>
        <path d="M 691 4666 
L 3169 4666 
L 3169 4134 
L 1269 4134 
L 1269 2991 
Q 1406 3038 1543 3061 
Q 1681 3084 1819 3084 
Q 2600 3084 3056 2656 
Q 3513 2228 3513 1497 
Q 3513 744 3044 326 
Q 2575 -91 1722 -91 
Q 1428 -91 1123 -41 
Q 819 9 494 109 
L 494 744 
Q 775 591 1075 516 
Q 1375 441 1709 441 
Q 2250 441 2565 725 
Q 2881 1009 2881 1497 
Q 2881 1984 2565 2268 
Q 2250 2553 1709 2553 
Q 1456 2553 1204 2497 
Q 953 2441 691 2322 
L 691 4666 
z
" id="DejaVuSans-35" transform="scale(0.015625)"/>
       </defs>
       <use xlink:href="#DejaVuSans-35"/>
       <use x="63.623047" xlink:href="#DejaVuSans-30"/>
      </g>
     </g>
    </g>
    <g id="xtick_3">
     <g id="line2d_3">
      <g>
       <use style="stroke:#000000;stroke-width:0.8;" x="200.650909" xlink:href="#ma5a72347a6" y="307.584"/>
      </g>
     </g>
     <g id="text_3">
      <!-- 100 -->
      <g transform="translate(191.107159 322.182437)scale(0.1 -0.1)">
       <defs>
        <path d="M 794 531 
L 1825 531 
L 1825 4091 
L 703 3866 
L 703 4441 
L 1819 4666 
L 2450 4666 
L 2450 531 
L 3481 531 
L 3481 0 
L 794 0 
L 794 531 
z
" id="DejaVuSans-31" transform="scale(0.015625)"/>
       </defs>
       <use xlink:href="#DejaVuSans-31"/>
       <use x="63.623047" xlink:href="#DejaVuSans-30"/>
       <use x="127.246094" xlink:href="#DejaVuSans-30"/>
      </g>
     </g>
    </g>
    <g id="xtick_4">
     <g id="line2d_4">
      <g>
       <use style="stroke:#000000;stroke-width:0.8;" x="264.06" xlink:href="#ma5a72347a6" y="307.584"/>
      </g>
     </g>
     <g id="text_4">
      <!-- 150 -->
      <g transform="translate(254.51625 322.182437)scale(0.1 -0.1)">
       <use xlink:href="#DejaVuSans-31"/>
       <use x="63.623047" xlink:href="#DejaVuSans-35"/>
       <use x="127.246094" xlink:href="#DejaVuSans-30"/>
      </g>
     </g>
    </g>
    <g id="xtick_5">
     <g id="line2d_5">
      <g>
       <use style="stroke:#000000;stroke-width:0.8;" x="327.469091" xlink:href="#ma5a72347a6" y="307.584"/>
      </g>
     </g>
     <g id="text_5">
      <!-- 200 -->
      <g transform="translate(317.925341 322.182437)scale(0.1 -0.1)">
       <defs>
        <path d="M 1228 531 
L 3431 531 
L 3431 0 
L 469 0 
L 469 531 
Q 828 903 1448 1529 
Q 2069 2156 2228 2338 
Q 2531 2678 2651 2914 
Q 2772 3150 2772 3378 
Q 2772 3750 2511 3984 
Q 2250 4219 1831 4219 
Q 1534 4219 1204 4116 
Q 875 4013 500 3803 
L 500 4441 
Q 881 4594 1212 4672 
Q 1544 4750 1819 4750 
Q 2544 4750 2975 4387 
Q 3406 4025 3406 3419 
Q 3406 3131 3298 2873 
Q 3191 2616 2906 2266 
Q 2828 2175 2409 1742 
Q 1991 1309 1228 531 
z
" id="DejaVuSans-32" transform="scale(0.015625)"/>
       </defs>
       <use xlink:href="#DejaVuSans-32"/>
       <use x="63.623047" xlink:href="#DejaVuSans-30"/>
       <use x="127.246094" xlink:href="#DejaVuSans-30"/>
      </g>
     </g>
    </g>
    <g id="xtick_6">
     <g id="line2d_6">
      <g>
       <use style="stroke:#000000;stroke-width:0.8;" x="390.878182" xlink:href="#ma5a72347a6" y="307.584"/>
      </g>
     </g>
     <g id="text_6">
      <!-- 250 -->
      <g transform="translate(381.334432 322.182437)scale(0.1 -0.1)">
       <use xlink:href="#DejaVuSans-32"/>
       <use x="63.623047" xlink:href="#DejaVuSans-35"/>
       <use x="127.246094" xlink:href="#DejaVuSans-30"/>
      </g>
     </g>
    </g>
   </g>
   <g id="matplotlib.axis_2">
    <g id="ytick_1">
     <g id="line2d_7">
      <defs>
       <path d="M 0 0 
L -3.5 0 
" id="mb99d31012d" style="stroke:#000000;stroke-width:0.8;"/>
      </defs>
      <g>
       <use style="stroke:#000000;stroke-width:0.8;" x="57.6" xlink:href="#mb99d31012d" y="307.584"/>
      </g>
     </g>
     <g id="text_7">
      <!-- 0 -->
      <g transform="translate(44.2375 311.383219)scale(0.1 -0.1)">
       <use xlink:href="#DejaVuSans-30"/>
      </g>
     </g>
    </g>
    <g id="ytick_2">
     <g id="line2d_8">
      <g>
       <use style="stroke:#000000;stroke-width:0.8;" x="57.6" xlink:href="#mb99d31012d" y="265.479786"/>
      </g>
     </g>
     <g id="text_8">
      <!-- 20000 -->
      <g transform="translate(18.7875 269.279005)scale(0.1 -0.1)">
       <use xlink:href="#DejaVuSans-32"/>
       <use x="63.623047" xlink:href="#DejaVuSans-30"/>
       <use x="127.246094" xlink:href="#DejaVuSans-30"/>
       <use x="190.869141" xlink:href="#DejaVuSans-30"/>
       <use x="254.492188" xlink:href="#DejaVuSans-30"/>
      </g>
     </g>
    </g>
    <g id="ytick_3">
     <g id="line2d_9">
      <g>
       <use style="stroke:#000000;stroke-width:0.8;" x="57.6" xlink:href="#mb99d31012d" y="223.375572"/>
      </g>
     </g>
     <g id="text_9">
      <!-- 40000 -->
      <g transform="translate(18.7875 227.174791)scale(0.1 -0.1)">
       <defs>
        <path d="M 2419 4116 
L 825 1625 
L 2419 1625 
L 2419 4116 
z
M 2253 4666 
L 3047 4666 
L 3047 1625 
L 3713 1625 
L 3713 1100 
L 3047 1100 
L 3047 0 
L 2419 0 
L 2419 1100 
L 313 1100 
L 313 1709 
L 2253 4666 
z
" id="DejaVuSans-34" transform="scale(0.015625)"/>
       </defs>
       <use xlink:href="#DejaVuSans-34"/>
       <use x="63.623047" xlink:href="#DejaVuSans-30"/>
       <use x="127.246094" xlink:href="#DejaVuSans-30"/>
       <use x="190.869141" xlink:href="#DejaVuSans-30"/>
       <use x="254.492188" xlink:href="#DejaVuSans-30"/>
      </g>
     </g>
    </g>
    <g id="ytick_4">
     <g id="line2d_10">
      <g>
       <use style="stroke:#000000;stroke-width:0.8;" x="57.6" xlink:href="#mb99d31012d" y="181.271358"/>
      </g>
     </g>
     <g id="text_10">
      <!-- 60000 -->
      <g transform="translate(18.7875 185.070577)scale(0.1 -0.1)">
       <defs>
        <path d="M 2113 2584 
Q 1688 2584 1439 2293 
Q 1191 2003 1191 1497 
Q 1191 994 1439 701 
Q 1688 409 2113 409 
Q 2538 409 2786 701 
Q 3034 994 3034 1497 
Q 3034 2003 2786 2293 
Q 2538 2584 2113 2584 
z
M 3366 4563 
L 3366 3988 
Q 3128 4100 2886 4159 
Q 2644 4219 2406 4219 
Q 1781 4219 1451 3797 
Q 1122 3375 1075 2522 
Q 1259 2794 1537 2939 
Q 1816 3084 2150 3084 
Q 2853 3084 3261 2657 
Q 3669 2231 3669 1497 
Q 3669 778 3244 343 
Q 2819 -91 2113 -91 
Q 1303 -91 875 529 
Q 447 1150 447 2328 
Q 447 3434 972 4092 
Q 1497 4750 2381 4750 
Q 2619 4750 2861 4703 
Q 3103 4656 3366 4563 
z
" id="DejaVuSans-36" transform="scale(0.015625)"/>
       </defs>
       <use xlink:href="#DejaVuSans-36"/>
       <use x="63.623047" xlink:href="#DejaVuSans-30"/>
       <use x="127.246094" xlink:href="#DejaVuSans-30"/>
       <use x="190.869141" xlink:href="#DejaVuSans-30"/>
       <use x="254.492188" xlink:href="#DejaVuSans-30"/>
      </g>
     </g>
    </g>
    <g id="ytick_5">
     <g id="line2d_11">
      <g>
       <use style="stroke:#000000;stroke-width:0.8;" x="57.6" xlink:href="#mb99d31012d" y="139.167144"/>
      </g>
     </g>
     <g id="text_11">
      <!-- 80000 -->
      <g transform="translate(18.7875 142.966363)scale(0.1 -0.1)">
       <defs>
        <path d="M 2034 2216 
Q 1584 2216 1326 1975 
Q 1069 1734 1069 1313 
Q 1069 891 1326 650 
Q 1584 409 2034 409 
Q 2484 409 2743 651 
Q 3003 894 3003 1313 
Q 3003 1734 2745 1975 
Q 2488 2216 2034 2216 
z
M 1403 2484 
Q 997 2584 770 2862 
Q 544 3141 544 3541 
Q 544 4100 942 4425 
Q 1341 4750 2034 4750 
Q 2731 4750 3128 4425 
Q 3525 4100 3525 3541 
Q 3525 3141 3298 2862 
Q 3072 2584 2669 2484 
Q 3125 2378 3379 2068 
Q 3634 1759 3634 1313 
Q 3634 634 3220 271 
Q 2806 -91 2034 -91 
Q 1263 -91 848 271 
Q 434 634 434 1313 
Q 434 1759 690 2068 
Q 947 2378 1403 2484 
z
M 1172 3481 
Q 1172 3119 1398 2916 
Q 1625 2713 2034 2713 
Q 2441 2713 2670 2916 
Q 2900 3119 2900 3481 
Q 2900 3844 2670 4047 
Q 2441 4250 2034 4250 
Q 1625 4250 1398 4047 
Q 1172 3844 1172 3481 
z
" id="DejaVuSans-38" transform="scale(0.015625)"/>
       </defs>
       <use xlink:href="#DejaVuSans-38"/>
       <use x="63.623047" xlink:href="#DejaVuSans-30"/>
       <use x="127.246094" xlink:href="#DejaVuSans-30"/>
       <use x="190.869141" xlink:href="#DejaVuSans-30"/>
       <use x="254.492188" xlink:href="#DejaVuSans-30"/>
      </g>
     </g>
    </g>
    <g id="ytick_6">
     <g id="line2d_12">
      <g>
       <use style="stroke:#000000;stroke-width:0.8;" x="57.6" xlink:href="#mb99d31012d" y="97.06293"/>
      </g>
     </g>
     <g id="text_12">
      <!-- 100000 -->
      <g transform="translate(12.425 100.862149)scale(0.1 -0.1)">
       <use xlink:href="#DejaVuSans-31"/>
       <use x="63.623047" xlink:href="#DejaVuSans-30"/>
       <use x="127.246094" xlink:href="#DejaVuSans-30"/>
       <use x="190.869141" xlink:href="#DejaVuSans-30"/>
       <use x="254.492188" xlink:href="#DejaVuSans-30"/>
       <use x="318.115234" xlink:href="#DejaVuSans-30"/>
      </g>
     </g>
    </g>
    <g id="ytick_7">
     <g id="line2d_13">
      <g>
       <use style="stroke:#000000;stroke-width:0.8;" x="57.6" xlink:href="#mb99d31012d" y="54.958717"/>
      </g>
     </g>
     <g id="text_13">
      <!-- 120000 -->
      <g transform="translate(12.425 58.757935)scale(0.1 -0.1)">
       <use xlink:href="#DejaVuSans-31"/>
       <use x="63.623047" xlink:href="#DejaVuSans-32"/>
       <use x="127.246094" xlink:href="#DejaVuSans-30"/>
       <use x="190.869141" xlink:href="#DejaVuSans-30"/>
       <use x="254.492188" xlink:href="#DejaVuSans-30"/>
       <use x="318.115234" xlink:href="#DejaVuSans-30"/>
      </g>
     </g>
    </g>
   </g>
   <g id="patch_259">
    <path d="M 57.6 307.584 
L 57.6 41.472 
" style="fill:none;stroke:#000000;stroke-linecap:square;stroke-linejoin:miter;stroke-width:0.8;"/>
   </g>
   <g id="patch_260">
    <path d="M 414.72 307.584 
L 414.72 41.472 
" style="fill:none;stroke:#000000;stroke-linecap:square;stroke-linejoin:miter;stroke-width:0.8;"/>
   </g>
   <g id="patch_261">
    <path d="M 57.6 307.584 
L 414.72 307.584 
" style="fill:none;stroke:#000000;stroke-linecap:square;stroke-linejoin:miter;stroke-width:0.8;"/>
   </g>
   <g id="patch_262">
    <path d="M 57.6 41.472 
L 414.72 41.472 
" style="fill:none;stroke:#000000;stroke-linecap:square;stroke-linejoin:miter;stroke-width:0.8;"/>
   </g>
  </g>
 </g>
 <defs>
  <clipPath id="p16e5a1d751">
   <rect height="266.112" width="357.12" x="57.6" y="41.472"/>
  </clipPath>
 </defs>
</svg>
